<?xml version="1.0" standalone="no"?>
<!DOCTYPE svg PUBLIC "-//W3C//DTD SVG 1.1//EN"
  "http://www.w3.org/Graphics/SVG/1.1/DTD/svg11.dtd">
<svg xmlns="http://www.w3.org/2000/svg" version="1.1" class="railroad-diagram" width="273" height="109" viewBox="0 0 273 109">
<defs><style type="text/css"><![CDATA[ svg.railroad-diagram {
  background-color: hsl(30,20%,95%);
}
svg.railroad-diagram path {
  stroke-width: 3;
  stroke: black;
  fill: none;
}
svg.railroad-diagram text {
  font: bold 14px monospace;
  text-anchor: middle;
  cursor: pointer;
}
svg.railroad-diagram text.label {
  text-anchor: start;
}
svg.railroad-diagram text.comment {
  font: italic 12px monospace;
}
svg.railroad-diagram rect {
  stroke-width: 3;
  stroke: black;
  fill: hsl(120,100%,90%);
}
 ]]></style></defs>
<g transform="translate(.5 .5)">
<path d="M 20 21 v 20 m 10 -20 v 20 m -10 -10 h 20.5"></path>
<path d="M40 31h10"></path>
<g>
<path d="M50 31h0"></path>
<path d="M222 31h0"></path>
<path d="M50 31h10"></path>
<g>
<path d="M60 31h0"></path>
<path d="M212 31h0"></path>
<path d="M60 31h20"></path>
<g>
<path d="M80 31h0"></path>
<path d="M192 31h0"></path>
<path d="M80 31h10"></path>
<g>
<path d="M90 31h0"></path>
<path d="M182 31h0"></path>
<rect x="90" y="20" width="92" height="22" rx="10" ry="10"></rect>
<text x="136" y="35">&#91; \t\r\n&#93;</text>
</g>
<path d="M182 31h10"></path>
<path d="M90 31a10 10 0 0 0 -10 10v0a10 10 0 0 0 10 10"></path>
<g>
<path d="M90 51h92"></path>
</g>
<path d="M182 51a10 10 0 0 0 10 -10v0a10 10 0 0 0 -10 -10"></path>
</g>
<path d="M192 31h20"></path>
<path d="M60 31a10 10 0 0 1 10 10v19a10 10 0 0 0 10 10"></path>
<g>
<path d="M80 70h18"></path>
<path d="M174 70h18"></path>
<rect x="98" y="59" width="76" height="22"></rect>
<text x="136" y="74">comment</text>
</g>
<path d="M192 70a10 10 0 0 0 10 -10v-19a10 10 0 0 1 10 -10"></path>
</g>
<path d="M212 31h10"></path>
<path d="M60 31a10 10 0 0 0 -10 10v38a10 10 0 0 0 10 10"></path>
<g>
<path d="M60 89h152"></path>
</g>
<path d="M212 89a10 10 0 0 0 10 -10v-38a10 10 0 0 0 -10 -10"></path>
</g>
<path d="M222 31h10"></path>
<path d="M 232 31 h 20 m -10 -10 v 20 m 10 -20 v 20"></path>
</g>
</svg>
