<?xml version="1.0" standalone="no"?>
<!DOCTYPE svg PUBLIC "-//W3C//DTD SVG 1.1//EN"
  "http://www.w3.org/Graphics/SVG/1.1/DTD/svg11.dtd">
<svg xmlns="http://www.w3.org/2000/svg" version="1.1" class="railroad-diagram" width="569" height="81" viewBox="0 0 569 81">
<defs><style type="text/css"><![CDATA[ svg.railroad-diagram {
  background-color: hsl(30,20%,95%);
}
svg.railroad-diagram path {
  stroke-width: 3;
  stroke: black;
  fill: none;
}
svg.railroad-diagram text {
  font: bold 14px monospace;
  text-anchor: middle;
  cursor: pointer;
}
svg.railroad-diagram text.label {
  text-anchor: start;
}
svg.railroad-diagram text.comment {
  font: italic 12px monospace;
}
svg.railroad-diagram rect {
  stroke-width: 3;
  stroke: black;
  fill: hsl(120,100%,90%);
}
 ]]></style></defs>
<g transform="translate(.5 .5)">
<path d="M 20 31 v 20 m 10 -20 v 20 m -10 -10 h 20.5"></path>
<g>
<path d="M40 41h0"></path>
<path d="M528 41h0"></path>
<path d="M40 41h10"></path>
<g>
<path d="M50 41h0"></path>
<path d="M78 41h0"></path>
<rect x="50" y="30" width="28" height="22" rx="10" ry="10"></rect>
<text x="64" y="45">&#91;</text>
</g>
<path d="M78 41h10"></path>
<g>
<path d="M88 41h0"></path>
<path d="M208 41h0"></path>
<path d="M88 41a10 10 0 0 0 10 -10v0a10 10 0 0 1 10 -10"></path>
<g>
<path d="M108 21h80"></path>
</g>
<path d="M188 21a10 10 0 0 1 10 10v0a10 10 0 0 0 10 10"></path>
<path d="M88 41h20"></path>
<g>
<path d="M108 41h0"></path>
<path d="M188 41h0"></path>
<path d="M108 41h10"></path>
<g>
<path d="M118 41h0"></path>
<path d="M178 41h0"></path>
<rect x="118" y="30" width="60" height="22" rx="10" ry="10"></rect>
<text x="148" y="45">&#91;0-9&#93;</text>
</g>
<path d="M178 41h10"></path>
<path d="M118 41a10 10 0 0 0 -10 10v0a10 10 0 0 0 10 10"></path>
<g>
<path d="M118 61h60"></path>
</g>
<path d="M178 61a10 10 0 0 0 10 -10v0a10 10 0 0 0 -10 -10"></path>
</g>
<path d="M188 41h20"></path>
</g>
<path d="M208 41h10"></path>
<g>
<path d="M218 41h0"></path>
<path d="M246 41h0"></path>
<rect x="218" y="30" width="28" height="22"></rect>
<text x="232" y="45">&#95;</text>
</g>
<path d="M246 41h10"></path>
<path d="M256 41h10"></path>
<g>
<path d="M266 41h0"></path>
<path d="M302 41h0"></path>
<rect x="266" y="30" width="36" height="22" rx="10" ry="10"></rect>
<text x="284" y="45">..</text>
</g>
<path d="M302 41h10"></path>
<path d="M312 41h10"></path>
<g>
<path d="M322 41h0"></path>
<path d="M350 41h0"></path>
<rect x="322" y="30" width="28" height="22"></rect>
<text x="336" y="45">&#95;</text>
</g>
<path d="M350 41h10"></path>
<g>
<path d="M360 41h0"></path>
<path d="M480 41h0"></path>
<path d="M360 41a10 10 0 0 0 10 -10v0a10 10 0 0 1 10 -10"></path>
<g>
<path d="M380 21h80"></path>
</g>
<path d="M460 21a10 10 0 0 1 10 10v0a10 10 0 0 0 10 10"></path>
<path d="M360 41h20"></path>
<g>
<path d="M380 41h0"></path>
<path d="M460 41h0"></path>
<path d="M380 41h10"></path>
<g>
<path d="M390 41h0"></path>
<path d="M450 41h0"></path>
<rect x="390" y="30" width="60" height="22" rx="10" ry="10"></rect>
<text x="420" y="45">&#91;0-9&#93;</text>
</g>
<path d="M450 41h10"></path>
<path d="M390 41a10 10 0 0 0 -10 10v0a10 10 0 0 0 10 10"></path>
<g>
<path d="M390 61h60"></path>
</g>
<path d="M450 61a10 10 0 0 0 10 -10v0a10 10 0 0 0 -10 -10"></path>
</g>
<path d="M460 41h20"></path>
</g>
<path d="M480 41h10"></path>
<g>
<path d="M490 41h0"></path>
<path d="M518 41h0"></path>
<rect x="490" y="30" width="28" height="22" rx="10" ry="10"></rect>
<text x="504" y="45">&#93;</text>
</g>
<path d="M518 41h10"></path>
</g>
<path d="M 528 41 h 20 m -10 -10 v 20 m 10 -20 v 20"></path>
</g>
</svg>
