<?xml version="1.0" standalone="no"?>
<!DOCTYPE svg PUBLIC "-//W3C//DTD SVG 1.1//EN"
  "http://www.w3.org/Graphics/SVG/1.1/DTD/svg11.dtd">
<svg xmlns="http://www.w3.org/2000/svg" version="1.1" class="railroad-diagram" width="309" height="71" viewBox="0 0 309 71">
<defs><style type="text/css"><![CDATA[ svg.railroad-diagram {
  background-color: hsl(30,20%,95%);
}
svg.railroad-diagram path {
  stroke-width: 3;
  stroke: black;
  fill: none;
}
svg.railroad-diagram text {
  font: bold 14px monospace;
  text-anchor: middle;
  cursor: pointer;
}
svg.railroad-diagram text.label {
  text-anchor: start;
}
svg.railroad-diagram text.comment {
  font: italic 12px monospace;
}
svg.railroad-diagram rect {
  stroke-width: 3;
  stroke: black;
  fill: hsl(120,100%,90%);
}
 ]]></style></defs>
<g transform="translate(.5 .5)">
<path d="M 20 21 v 20 m 10 -20 v 20 m -10 -10 h 20.5"></path>
<g>
<path d="M40 31h0"></path>
<path d="M268 31h0"></path>
<path d="M40 31h10"></path>
<g>
<path d="M50 31h0"></path>
<path d="M78 31h0"></path>
<rect x="50" y="20" width="28" height="22"></rect>
<text x="64" y="35">&#95;</text>
</g>
<path d="M78 31h10"></path>
<path d="M88 31h10"></path>
<g>
<path d="M98 31h0"></path>
<path d="M210 31h0"></path>
<path d="M98 31h10"></path>
<g>
<path d="M108 31h0"></path>
<path d="M200 31h0"></path>
<rect x="108" y="20" width="92" height="22"></rect>
<text x="154" y="35">attribute</text>
</g>
<path d="M200 31h10"></path>
<path d="M108 31a10 10 0 0 0 -10 10v0a10 10 0 0 0 10 10"></path>
<g>
<path d="M108 51h92"></path>
</g>
<path d="M200 51a10 10 0 0 0 10 -10v0a10 10 0 0 0 -10 -10"></path>
</g>
<path d="M210 31h10"></path>
<path d="M220 31h10"></path>
<g>
<path d="M230 31h0"></path>
<path d="M258 31h0"></path>
<rect x="230" y="20" width="28" height="22"></rect>
<text x="244" y="35">&#95;</text>
</g>
<path d="M258 31h10"></path>
</g>
<path d="M 268 31 h 20 m -10 -10 v 20 m 10 -20 v 20"></path>
</g>
</svg>
