<?xml version="1.0" standalone="no"?>
<!DOCTYPE svg PUBLIC "-//W3C//DTD SVG 1.1//EN"
  "http://www.w3.org/Graphics/SVG/1.1/DTD/svg11.dtd">
<svg xmlns="http://www.w3.org/2000/svg" version="1.1" class="railroad-diagram" width="553" height="109" viewBox="0 0 553 109">
<defs><style type="text/css"><![CDATA[ svg.railroad-diagram {
  background-color: hsl(30,20%,95%);
}
svg.railroad-diagram path {
  stroke-width: 3;
  stroke: black;
  fill: none;
}
svg.railroad-diagram text {
  font: bold 14px monospace;
  text-anchor: middle;
  cursor: pointer;
}
svg.railroad-diagram text.label {
  text-anchor: start;
}
svg.railroad-diagram text.comment {
  font: italic 12px monospace;
}
svg.railroad-diagram rect {
  stroke-width: 3;
  stroke: black;
  fill: hsl(120,100%,90%);
}
 ]]></style></defs>
<g transform="translate(.5 .5)">
<path d="M 20 31 v 20 m 10 -20 v 20 m -10 -10 h 20.5"></path>
<g>
<path d="M40 41h0"></path>
<path d="M512 41h0"></path>
<path d="M40 41h10"></path>
<g>
<path d="M50 41h0"></path>
<path d="M78 41h0"></path>
<rect x="50" y="30" width="28" height="22" rx="10" ry="10"></rect>
<text x="64" y="45">"</text>
</g>
<path d="M78 41h10"></path>
<path d="M88 41h10"></path>
<g>
<path d="M98 41h0"></path>
<path d="M126 41h0"></path>
<rect x="98" y="30" width="28" height="22"></rect>
<text x="112" y="45">&#95;</text>
</g>
<path d="M126 41h10"></path>
<g>
<path d="M136 41h0"></path>
<path d="M464 41h0"></path>
<path d="M136 41a10 10 0 0 0 10 -10v0a10 10 0 0 1 10 -10"></path>
<g>
<path d="M156 21h288"></path>
</g>
<path d="M444 21a10 10 0 0 1 10 10v0a10 10 0 0 0 10 10"></path>
<path d="M136 41h20"></path>
<g>
<path d="M156 41h0"></path>
<path d="M444 41h0"></path>
<path d="M156 41h10"></path>
<g>
<path d="M166 41h0"></path>
<path d="M434 41h0"></path>
<g>
<path d="M166 41h0"></path>
<path d="M274 41h0"></path>
<path d="M166 41h20"></path>
<g>
<path d="M186 41h68"></path>
</g>
<path d="M254 41h20"></path>
<path d="M166 41a10 10 0 0 1 10 10v0a10 10 0 0 0 10 10"></path>
<g>
<path d="M186 61h0"></path>
<path d="M254 61h0"></path>
<path d="M 186 61 h 20 m -10 -10 v 20 m 10 -20 v 20"></path>
<path d="M206 61h10"></path>
<g>
<path d="M216 61h0"></path>
<path d="M244 61h0"></path>
<rect x="216" y="50" width="28" height="22" rx="10" ry="10"></rect>
<text x="230" y="65">"</text>
</g>
<path d="M244 61h10"></path>
</g>
<path d="M254 61a10 10 0 0 0 10 -10v0a10 10 0 0 1 10 -10"></path>
</g>
<path d="M274 41h10"></path>
<g>
<path d="M284 41h0"></path>
<path d="M424 41h0"></path>
<rect x="284" y="30" width="140" height="22" rx="10" ry="10"></rect>
<text x="354" y="45">&#91;any character&#93;</text>
</g>
<path d="M424 41h10"></path>
</g>
<path d="M434 41h10"></path>
<path d="M166 41a10 10 0 0 0 -10 10v28a10 10 0 0 0 10 10"></path>
<g>
<path d="M166 89h268"></path>
</g>
<path d="M434 89a10 10 0 0 0 10 -10v-28a10 10 0 0 0 -10 -10"></path>
</g>
<path d="M444 41h20"></path>
</g>
<path d="M464 41h10"></path>
<g>
<path d="M474 41h0"></path>
<path d="M502 41h0"></path>
<rect x="474" y="30" width="28" height="22" rx="10" ry="10"></rect>
<text x="488" y="45">"</text>
</g>
<path d="M502 41h10"></path>
</g>
<path d="M 512 41 h 20 m -10 -10 v 20 m 10 -20 v 20"></path>
</g>
</svg>
