<?xml version="1.0" standalone="no"?>
<!DOCTYPE svg PUBLIC "-//W3C//DTD SVG 1.1//EN"
  "http://www.w3.org/Graphics/SVG/1.1/DTD/svg11.dtd">
<svg xmlns="http://www.w3.org/2000/svg" version="1.1" class="railroad-diagram" width="1037" height="81" viewBox="0 0 1037 81">
<defs><style type="text/css"><![CDATA[ svg.railroad-diagram {
  background-color: hsl(30,20%,95%);
}
svg.railroad-diagram path {
  stroke-width: 3;
  stroke: black;
  fill: none;
}
svg.railroad-diagram text {
  font: bold 14px monospace;
  text-anchor: middle;
  cursor: pointer;
}
svg.railroad-diagram text.label {
  text-anchor: start;
}
svg.railroad-diagram text.comment {
  font: italic 12px monospace;
}
svg.railroad-diagram rect {
  stroke-width: 3;
  stroke: black;
  fill: hsl(120,100%,90%);
}
 ]]></style></defs>
<g transform="translate(.5 .5)">
<path d="M 20 31 v 20 m 10 -20 v 20 m -10 -10 h 20.5"></path>
<g>
<path d="M40 41h0"></path>
<path d="M996 41h0"></path>
<path d="M40 41h10"></path>
<g>
<path d="M50 41h0"></path>
<path d="M78 41h0"></path>
<rect x="50" y="30" width="28" height="22"></rect>
<text x="64" y="45">&#95;</text>
</g>
<path d="M78 41h10"></path>
<g>
<path d="M88 41h0"></path>
<path d="M236 41h0"></path>
<path d="M88 41a10 10 0 0 0 10 -10v0a10 10 0 0 1 10 -10"></path>
<g>
<path d="M108 21h108"></path>
</g>
<path d="M216 21a10 10 0 0 1 10 10v0a10 10 0 0 0 10 10"></path>
<path d="M88 41h20"></path>
<g>
<path d="M108 41h0"></path>
<path d="M216 41h0"></path>
<rect x="108" y="30" width="108" height="22"></rect>
<text x="162" y="45">description</text>
</g>
<path d="M216 41h20"></path>
</g>
<path d="M236 41h10"></path>
<g>
<path d="M246 41h0"></path>
<path d="M274 41h0"></path>
<rect x="246" y="30" width="28" height="22"></rect>
<text x="260" y="45">&#95;</text>
</g>
<path d="M274 41h10"></path>
<path d="M284 41h10"></path>
<g>
<path d="M294 41h0"></path>
<path d="M346 41h0"></path>
<rect x="294" y="30" width="52" height="22" rx="10" ry="10"></rect>
<text x="320" y="45">enum</text>
</g>
<path d="M346 41h10"></path>
<path d="M356 41h10"></path>
<g>
<path d="M366 41h0"></path>
<path d="M394 41h0"></path>
<rect x="366" y="30" width="28" height="22"></rect>
<text x="380" y="45">&#95;</text>
</g>
<path d="M394 41h10"></path>
<path d="M404 41h10"></path>
<g>
<path d="M414 41h0"></path>
<path d="M466 41h0"></path>
<rect x="414" y="30" width="52" height="22"></rect>
<text x="440" y="45">name</text>
</g>
<path d="M466 41h10"></path>
<path d="M476 41h10"></path>
<g>
<path d="M486 41h0"></path>
<path d="M514 41h0"></path>
<rect x="486" y="30" width="28" height="22"></rect>
<text x="500" y="45">&#95;</text>
</g>
<path d="M514 41h10"></path>
<path d="M524 41h10"></path>
<g>
<path d="M534 41h0"></path>
<path d="M562 41h0"></path>
<rect x="534" y="30" width="28" height="22" rx="10" ry="10"></rect>
<text x="548" y="45">{</text>
</g>
<path d="M562 41h10"></path>
<path d="M572 41h10"></path>
<g>
<path d="M582 41h0"></path>
<path d="M610 41h0"></path>
<rect x="582" y="30" width="28" height="22"></rect>
<text x="596" y="45">&#95;</text>
</g>
<path d="M610 41h10"></path>
<path d="M620 41h10"></path>
<g>
<path d="M630 41h0"></path>
<path d="M726 41h0"></path>
<path d="M630 41h10"></path>
<g>
<path d="M640 41h0"></path>
<path d="M716 41h0"></path>
<rect x="640" y="30" width="76" height="22"></rect>
<text x="678" y="45">literal</text>
</g>
<path d="M716 41h10"></path>
<path d="M640 41a10 10 0 0 0 -10 10v0a10 10 0 0 0 10 10"></path>
<g>
<path d="M640 61h76"></path>
</g>
<path d="M716 61a10 10 0 0 0 10 -10v0a10 10 0 0 0 -10 -10"></path>
</g>
<path d="M726 41h10"></path>
<path d="M736 41h10"></path>
<g>
<path d="M746 41h0"></path>
<path d="M774 41h0"></path>
<rect x="746" y="30" width="28" height="22"></rect>
<text x="760" y="45">&#95;</text>
</g>
<path d="M774 41h10"></path>
<path d="M784 41h10"></path>
<g>
<path d="M794 41h0"></path>
<path d="M822 41h0"></path>
<rect x="794" y="30" width="28" height="22" rx="10" ry="10"></rect>
<text x="808" y="45">}</text>
</g>
<path d="M822 41h10"></path>
<path d="M832 41h10"></path>
<g>
<path d="M842 41h0"></path>
<path d="M870 41h0"></path>
<rect x="842" y="30" width="28" height="22"></rect>
<text x="856" y="45">&#95;</text>
</g>
<path d="M870 41h10"></path>
<g>
<path d="M880 41h0"></path>
<path d="M948 41h0"></path>
<path d="M880 41a10 10 0 0 0 10 -10v0a10 10 0 0 1 10 -10"></path>
<g>
<path d="M900 21h28"></path>
</g>
<path d="M928 21a10 10 0 0 1 10 10v0a10 10 0 0 0 10 10"></path>
<path d="M880 41h20"></path>
<g>
<path d="M900 41h0"></path>
<path d="M928 41h0"></path>
<rect x="900" y="30" width="28" height="22" rx="10" ry="10"></rect>
<text x="914" y="45">;</text>
</g>
<path d="M928 41h20"></path>
</g>
<path d="M948 41h10"></path>
<g>
<path d="M958 41h0"></path>
<path d="M986 41h0"></path>
<rect x="958" y="30" width="28" height="22"></rect>
<text x="972" y="45">&#95;</text>
</g>
<path d="M986 41h10"></path>
</g>
<path d="M 996 41 h 20 m -10 -10 v 20 m 10 -20 v 20"></path>
</g>
</svg>
