<?xml version="1.0" standalone="no"?>
<!DOCTYPE svg PUBLIC "-//W3C//DTD SVG 1.1//EN"
  "http://www.w3.org/Graphics/SVG/1.1/DTD/svg11.dtd">
<svg xmlns="http://www.w3.org/2000/svg" version="1.1" class="railroad-diagram" width="533" height="72" viewBox="0 0 533 72">
<defs><style type="text/css"><![CDATA[ svg.railroad-diagram {
  background-color: hsl(30,20%,95%);
}
svg.railroad-diagram path {
  stroke-width: 3;
  stroke: black;
  fill: none;
}
svg.railroad-diagram text {
  font: bold 14px monospace;
  text-anchor: middle;
  cursor: pointer;
}
svg.railroad-diagram text.label {
  text-anchor: start;
}
svg.railroad-diagram text.comment {
  font: italic 12px monospace;
}
svg.railroad-diagram rect {
  stroke-width: 3;
  stroke: black;
  fill: hsl(120,100%,90%);
}
 ]]></style></defs>
<g transform="translate(.5 .5)">
<path d="M 20 31 v 20 m 10 -20 v 20 m -10 -10 h 20.5"></path>
<g>
<path d="M40 41h0"></path>
<path d="M492 41h0"></path>
<path d="M40 41h10"></path>
<g>
<path d="M50 41h0"></path>
<path d="M78 41h0"></path>
<rect x="50" y="30" width="28" height="22"></rect>
<text x="64" y="45">&#95;</text>
</g>
<path d="M78 41h10"></path>
<path d="M88 41h10"></path>
<g>
<path d="M98 41h0"></path>
<path d="M166 41h0"></path>
<rect x="98" y="30" width="68" height="22" rx="10" ry="10"></rect>
<text x="132" y="45">import</text>
</g>
<path d="M166 41h10"></path>
<path d="M176 41h10"></path>
<g>
<path d="M186 41h0"></path>
<path d="M214 41h0"></path>
<rect x="186" y="30" width="28" height="22"></rect>
<text x="200" y="45">&#95;</text>
</g>
<path d="M214 41h10"></path>
<path d="M224 41h10"></path>
<g>
<path d="M234 41h0"></path>
<path d="M318 41h0"></path>
<rect x="234" y="30" width="84" height="22"></rect>
<text x="276" y="45">filename</text>
</g>
<path d="M318 41h10"></path>
<path d="M328 41h10"></path>
<g>
<path d="M338 41h0"></path>
<path d="M366 41h0"></path>
<rect x="338" y="30" width="28" height="22"></rect>
<text x="352" y="45">&#95;</text>
</g>
<path d="M366 41h10"></path>
<g>
<path d="M376 41h0"></path>
<path d="M444 41h0"></path>
<path d="M376 41a10 10 0 0 0 10 -10v0a10 10 0 0 1 10 -10"></path>
<g>
<path d="M396 21h28"></path>
</g>
<path d="M424 21a10 10 0 0 1 10 10v0a10 10 0 0 0 10 10"></path>
<path d="M376 41h20"></path>
<g>
<path d="M396 41h0"></path>
<path d="M424 41h0"></path>
<rect x="396" y="30" width="28" height="22" rx="10" ry="10"></rect>
<text x="410" y="45">;</text>
</g>
<path d="M424 41h20"></path>
</g>
<path d="M444 41h10"></path>
<g>
<path d="M454 41h0"></path>
<path d="M482 41h0"></path>
<rect x="454" y="30" width="28" height="22"></rect>
<text x="468" y="45">&#95;</text>
</g>
<path d="M482 41h10"></path>
</g>
<path d="M 492 41 h 20 m -10 -10 v 20 m 10 -20 v 20"></path>
</g>
</svg>
