<?xml version="1.0" standalone="no"?>
<!DOCTYPE svg PUBLIC "-//W3C//DTD SVG 1.1//EN"
  "http://www.w3.org/Graphics/SVG/1.1/DTD/svg11.dtd">
<svg xmlns="http://www.w3.org/2000/svg" version="1.1" class="railroad-diagram" width="377" height="62" viewBox="0 0 377 62">
<defs><style type="text/css"><![CDATA[ svg.railroad-diagram {
  background-color: hsl(30,20%,95%);
}
svg.railroad-diagram path {
  stroke-width: 3;
  stroke: black;
  fill: none;
}
svg.railroad-diagram text {
  font: bold 14px monospace;
  text-anchor: middle;
  cursor: pointer;
}
svg.railroad-diagram text.label {
  text-anchor: start;
}
svg.railroad-diagram text.comment {
  font: italic 12px monospace;
}
svg.railroad-diagram rect {
  stroke-width: 3;
  stroke: black;
  fill: hsl(120,100%,90%);
}
 ]]></style></defs>
<g transform="translate(.5 .5)">
<path d="M 20 21 v 20 m 10 -20 v 20 m -10 -10 h 20.5"></path>
<g>
<path d="M40 31h0"></path>
<path d="M336 31h0"></path>
<path d="M40 31h10"></path>
<g>
<path d="M50 31h0"></path>
<path d="M190 31h0"></path>
<rect x="50" y="20" width="140" height="22" rx="10" ry="10"></rect>
<text x="120" y="35">max-properties:</text>
</g>
<path d="M190 31h10"></path>
<path d="M200 31h10"></path>
<g>
<path d="M210 31h0"></path>
<path d="M238 31h0"></path>
<rect x="210" y="20" width="28" height="22"></rect>
<text x="224" y="35">&#95;</text>
</g>
<path d="M238 31h10"></path>
<path d="M248 31h10"></path>
<g>
<path d="M258 31h0"></path>
<path d="M326 31h0"></path>
<rect x="258" y="20" width="68" height="22"></rect>
<text x="292" y="35">number</text>
</g>
<path d="M326 31h10"></path>
</g>
<path d="M 336 31 h 20 m -10 -10 v 20 m 10 -20 v 20"></path>
</g>
</svg>
