<?xml version="1.0" standalone="no"?>
<!DOCTYPE svg PUBLIC "-//W3C//DTD SVG 1.1//EN"
  "http://www.w3.org/Graphics/SVG/1.1/DTD/svg11.dtd">
<svg xmlns="http://www.w3.org/2000/svg" version="1.1" class="railroad-diagram" width="345" height="62" viewBox="0 0 345 62">
<defs><style type="text/css"><![CDATA[ svg.railroad-diagram {
  background-color: hsl(30,20%,95%);
}
svg.railroad-diagram path {
  stroke-width: 3;
  stroke: black;
  fill: none;
}
svg.railroad-diagram text {
  font: bold 14px monospace;
  text-anchor: middle;
  cursor: pointer;
}
svg.railroad-diagram text.label {
  text-anchor: start;
}
svg.railroad-diagram text.comment {
  font: italic 12px monospace;
}
svg.railroad-diagram rect {
  stroke-width: 3;
  stroke: black;
  fill: hsl(120,100%,90%);
}
 ]]></style></defs>
<g transform="translate(.5 .5)">
<path d="M 20 21 v 20 m 10 -20 v 20 m -10 -10 h 20.5"></path>
<g>
<path d="M40 31h0"></path>
<path d="M304 31h0"></path>
<path d="M40 31h10"></path>
<g>
<path d="M50 31h0"></path>
<path d="M158 31h0"></path>
<rect x="50" y="20" width="108" height="22" rx="10" ry="10"></rect>
<text x="104" y="35">min-length:</text>
</g>
<path d="M158 31h10"></path>
<path d="M168 31h10"></path>
<g>
<path d="M178 31h0"></path>
<path d="M206 31h0"></path>
<rect x="178" y="20" width="28" height="22"></rect>
<text x="192" y="35">&#95;</text>
</g>
<path d="M206 31h10"></path>
<path d="M216 31h10"></path>
<g>
<path d="M226 31h0"></path>
<path d="M294 31h0"></path>
<rect x="226" y="20" width="68" height="22"></rect>
<text x="260" y="35">number</text>
</g>
<path d="M294 31h10"></path>
</g>
<path d="M 304 31 h 20 m -10 -10 v 20 m 10 -20 v 20"></path>
</g>
</svg>
