<?xml version="1.0" standalone="no"?>
<!DOCTYPE svg PUBLIC "-//W3C//DTD SVG 1.1//EN"
  "http://www.w3.org/Graphics/SVG/1.1/DTD/svg11.dtd">
<svg xmlns="http://www.w3.org/2000/svg" version="1.1" class="railroad-diagram" width="529" height="109" viewBox="0 0 529 109">
<defs><style type="text/css"><![CDATA[ svg.railroad-diagram {
  background-color: hsl(30,20%,95%);
}
svg.railroad-diagram path {
  stroke-width: 3;
  stroke: black;
  fill: none;
}
svg.railroad-diagram text {
  font: bold 14px monospace;
  text-anchor: middle;
  cursor: pointer;
}
svg.railroad-diagram text.label {
  text-anchor: start;
}
svg.railroad-diagram text.comment {
  font: italic 12px monospace;
}
svg.railroad-diagram rect {
  stroke-width: 3;
  stroke: black;
  fill: hsl(120,100%,90%);
}
 ]]></style></defs>
<g transform="translate(.5 .5)">
<path d="M 20 31 v 20 m 10 -20 v 20 m -10 -10 h 20.5"></path>
<g>
<path d="M40 41h0"></path>
<path d="M488 41h0"></path>
<path d="M40 41h10"></path>
<g>
<path d="M50 41h0"></path>
<path d="M86 41h0"></path>
<rect x="50" y="30" width="36" height="22" rx="10" ry="10"></rect>
<text x="68" y="45">/&#42;</text>
</g>
<path d="M86 41h10"></path>
<g>
<path d="M96 41h0"></path>
<path d="M432 41h0"></path>
<path d="M96 41a10 10 0 0 0 10 -10v0a10 10 0 0 1 10 -10"></path>
<g>
<path d="M116 21h296"></path>
</g>
<path d="M412 21a10 10 0 0 1 10 10v0a10 10 0 0 0 10 10"></path>
<path d="M96 41h20"></path>
<g>
<path d="M116 41h0"></path>
<path d="M412 41h0"></path>
<path d="M116 41h10"></path>
<g>
<path d="M126 41h0"></path>
<path d="M402 41h0"></path>
<g>
<path d="M126 41h0"></path>
<path d="M242 41h0"></path>
<path d="M126 41h20"></path>
<g>
<path d="M146 41h76"></path>
</g>
<path d="M222 41h20"></path>
<path d="M126 41a10 10 0 0 1 10 10v0a10 10 0 0 0 10 10"></path>
<g>
<path d="M146 61h0"></path>
<path d="M222 61h0"></path>
<path d="M 146 61 h 20 m -10 -10 v 20 m 10 -20 v 20"></path>
<path d="M166 61h10"></path>
<g>
<path d="M176 61h0"></path>
<path d="M212 61h0"></path>
<rect x="176" y="50" width="36" height="22" rx="10" ry="10"></rect>
<text x="194" y="65">&#42;/</text>
</g>
<path d="M212 61h10"></path>
</g>
<path d="M222 61a10 10 0 0 0 10 -10v0a10 10 0 0 1 10 -10"></path>
</g>
<path d="M242 41h10"></path>
<g>
<path d="M252 41h0"></path>
<path d="M392 41h0"></path>
<rect x="252" y="30" width="140" height="22" rx="10" ry="10"></rect>
<text x="322" y="45">&#91;any character&#93;</text>
</g>
<path d="M392 41h10"></path>
</g>
<path d="M402 41h10"></path>
<path d="M126 41a10 10 0 0 0 -10 10v28a10 10 0 0 0 10 10"></path>
<g>
<path d="M126 89h276"></path>
</g>
<path d="M402 89a10 10 0 0 0 10 -10v-28a10 10 0 0 0 -10 -10"></path>
</g>
<path d="M412 41h20"></path>
</g>
<path d="M432 41h10"></path>
<g>
<path d="M442 41h0"></path>
<path d="M478 41h0"></path>
<rect x="442" y="30" width="36" height="22" rx="10" ry="10"></rect>
<text x="460" y="45">&#42;/</text>
</g>
<path d="M478 41h10"></path>
</g>
<path d="M 488 41 h 20 m -10 -10 v 20 m 10 -20 v 20"></path>
</g>
</svg>
