<?xml version="1.0" standalone="no"?>
<!DOCTYPE svg PUBLIC "-//W3C//DTD SVG 1.1//EN"
  "http://www.w3.org/Graphics/SVG/1.1/DTD/svg11.dtd">
<svg xmlns="http://www.w3.org/2000/svg" version="1.1" class="railroad-diagram" width="497" height="252" viewBox="0 0 497 252">
<defs><style type="text/css"><![CDATA[ svg.railroad-diagram {
  background-color: hsl(30,20%,95%);
}
svg.railroad-diagram path {
  stroke-width: 3;
  stroke: black;
  fill: none;
}
svg.railroad-diagram text {
  font: bold 14px monospace;
  text-anchor: middle;
  cursor: pointer;
}
svg.railroad-diagram text.label {
  text-anchor: start;
}
svg.railroad-diagram text.comment {
  font: italic 12px monospace;
}
svg.railroad-diagram rect {
  stroke-width: 3;
  stroke: black;
  fill: hsl(120,100%,90%);
}
 ]]></style></defs>
<g transform="translate(.5 .5)">
<path d="M 20 31 v 20 m 10 -20 v 20 m -10 -10 h 20.5"></path>
<g>
<path d="M40 41h0"></path>
<path d="M456 41h0"></path>
<path d="M40 41h10"></path>
<g>
<path d="M50 41h0"></path>
<path d="M78 41h0"></path>
<rect x="50" y="30" width="28" height="22"></rect>
<text x="64" y="45">&#95;</text>
</g>
<path d="M78 41h10"></path>
<g>
<path d="M88 41h0"></path>
<path d="M236 41h0"></path>
<path d="M88 41a10 10 0 0 0 10 -10v0a10 10 0 0 1 10 -10"></path>
<g>
<path d="M108 21h108"></path>
</g>
<path d="M216 21a10 10 0 0 1 10 10v0a10 10 0 0 0 10 10"></path>
<path d="M88 41h20"></path>
<g>
<path d="M108 41h0"></path>
<path d="M216 41h0"></path>
<rect x="108" y="30" width="108" height="22"></rect>
<text x="162" y="45">description</text>
</g>
<path d="M216 41h20"></path>
</g>
<path d="M236 41h10"></path>
<g>
<path d="M246 41h0"></path>
<path d="M274 41h0"></path>
<rect x="246" y="30" width="28" height="22"></rect>
<text x="260" y="45">&#95;</text>
</g>
<path d="M274 41h10"></path>
<g>
<path d="M284 41h0"></path>
<path d="M408 41h0"></path>
<path d="M284 41h20"></path>
<g>
<path d="M304 41h20"></path>
<path d="M368 41h20"></path>
<rect x="324" y="30" width="44" height="22" rx="10" ry="10"></rect>
<text x="346" y="45">GET</text>
</g>
<path d="M388 41h20"></path>
<path d="M284 41a10 10 0 0 1 10 10v10a10 10 0 0 0 10 10"></path>
<g>
<path d="M304 71h20"></path>
<path d="M368 71h20"></path>
<rect x="324" y="60" width="44" height="22" rx="10" ry="10"></rect>
<text x="346" y="75">PUT</text>
</g>
<path d="M388 71a10 10 0 0 0 10 -10v-10a10 10 0 0 1 10 -10"></path>
<path d="M284 41a10 10 0 0 1 10 10v40a10 10 0 0 0 10 10"></path>
<g>
<path d="M304 101h12"></path>
<path d="M376 101h12"></path>
<rect x="316" y="90" width="60" height="22" rx="10" ry="10"></rect>
<text x="346" y="105">PATCH</text>
</g>
<path d="M388 101a10 10 0 0 0 10 -10v-40a10 10 0 0 1 10 -10"></path>
<path d="M284 41a10 10 0 0 1 10 10v70a10 10 0 0 0 10 10"></path>
<g>
<path d="M304 131h16"></path>
<path d="M372 131h16"></path>
<rect x="320" y="120" width="52" height="22" rx="10" ry="10"></rect>
<text x="346" y="135">POST</text>
</g>
<path d="M388 131a10 10 0 0 0 10 -10v-70a10 10 0 0 1 10 -10"></path>
<path d="M284 41a10 10 0 0 1 10 10v100a10 10 0 0 0 10 10"></path>
<g>
<path d="M304 161h8"></path>
<path d="M380 161h8"></path>
<rect x="312" y="150" width="68" height="22" rx="10" ry="10"></rect>
<text x="346" y="165">DELETE</text>
</g>
<path d="M388 161a10 10 0 0 0 10 -10v-100a10 10 0 0 1 10 -10"></path>
<path d="M284 41a10 10 0 0 1 10 10v130a10 10 0 0 0 10 10"></path>
<g>
<path d="M304 191h0"></path>
<path d="M388 191h0"></path>
<rect x="304" y="180" width="84" height="22" rx="10" ry="10"></rect>
<text x="346" y="195">MULTIGET</text>
</g>
<path d="M388 191a10 10 0 0 0 10 -10v-130a10 10 0 0 1 10 -10"></path>
<path d="M284 41a10 10 0 0 1 10 10v160a10 10 0 0 0 10 10"></path>
<g>
<path d="M304 221h8"></path>
<path d="M380 221h8"></path>
<rect x="312" y="210" width="68" height="22" rx="10" ry="10"></rect>
<text x="346" y="225">EVENTS</text>
</g>
<path d="M388 221a10 10 0 0 0 10 -10v-160a10 10 0 0 1 10 -10"></path>
</g>
<path d="M408 41h10"></path>
<g>
<path d="M418 41h0"></path>
<path d="M446 41h0"></path>
<rect x="418" y="30" width="28" height="22"></rect>
<text x="432" y="45">&#95;</text>
</g>
<path d="M446 41h10"></path>
</g>
<path d="M 456 41 h 20 m -10 -10 v 20 m 10 -20 v 20"></path>
</g>
</svg>
