<?xml version="1.0" standalone="no"?>
<!DOCTYPE svg PUBLIC "-//W3C//DTD SVG 1.1//EN"
  "http://www.w3.org/Graphics/SVG/1.1/DTD/svg11.dtd">
<svg xmlns="http://www.w3.org/2000/svg" version="1.1" class="railroad-diagram" width="337" height="92" viewBox="0 0 337 92">
<defs><style type="text/css"><![CDATA[ svg.railroad-diagram {
  background-color: hsl(30,20%,95%);
}
svg.railroad-diagram path {
  stroke-width: 3;
  stroke: black;
  fill: none;
}
svg.railroad-diagram text {
  font: bold 14px monospace;
  text-anchor: middle;
  cursor: pointer;
}
svg.railroad-diagram text.label {
  text-anchor: start;
}
svg.railroad-diagram text.comment {
  font: italic 12px monospace;
}
svg.railroad-diagram rect {
  stroke-width: 3;
  stroke: black;
  fill: hsl(120,100%,90%);
}
 ]]></style></defs>
<g transform="translate(.5 .5)">
<path d="M 20 21 v 20 m 10 -20 v 20 m -10 -10 h 20.5"></path>
<g>
<path d="M40 31h0"></path>
<path d="M296 31h0"></path>
<path d="M40 31h10"></path>
<g>
<path d="M50 31h0"></path>
<path d="M78 31h0"></path>
<rect x="50" y="20" width="28" height="22"></rect>
<text x="64" y="35">&#95;</text>
</g>
<path d="M78 31h10"></path>
<path d="M88 31h10"></path>
<g>
<path d="M98 31h0"></path>
<path d="M174 31h0"></path>
<rect x="98" y="20" width="76" height="22"></rect>
<text x="136" y="35">resname</text>
</g>
<path d="M174 31h10"></path>
<path d="M184 31h10"></path>
<g>
<path d="M194 31h0"></path>
<path d="M286 31h0"></path>
<path d="M194 31h10"></path>
<g>
<path d="M204 31h8"></path>
<path d="M268 31h8"></path>
<path d="M212 31h10"></path>
<g>
<path d="M222 31h0"></path>
<path d="M258 31h0"></path>
<rect x="222" y="20" width="36" height="22" rx="10" ry="10"></rect>
<text x="240" y="35">::</text>
</g>
<path d="M258 31h10"></path>
</g>
<path d="M276 31h10"></path>
<path d="M204 31a10 10 0 0 0 -10 10v10a10 10 0 0 0 10 10"></path>
<g>
<path d="M204 61h0"></path>
<path d="M276 61h0"></path>
<path d="M204 61h10"></path>
<g>
<path d="M214 61h0"></path>
<path d="M266 61h0"></path>
<rect x="214" y="50" width="52" height="22"></rect>
<text x="240" y="65">name</text>
</g>
<path d="M266 61h10"></path>
</g>
<path d="M276 61a10 10 0 0 0 10 -10v-10a10 10 0 0 0 -10 -10"></path>
</g>
<path d="M286 31h10"></path>
</g>
<path d="M 296 31 h 20 m -10 -10 v 20 m 10 -20 v 20"></path>
</g>
</svg>
