<?xml version="1.0" standalone="no"?>
<!DOCTYPE svg PUBLIC "-//W3C//DTD SVG 1.1//EN"
  "http://www.w3.org/Graphics/SVG/1.1/DTD/svg11.dtd">
<svg xmlns="http://www.w3.org/2000/svg" version="1.1" class="railroad-diagram" width="393" height="62" viewBox="0 0 393 62">
<defs><style type="text/css"><![CDATA[ svg.railroad-diagram {
  background-color: hsl(30,20%,95%);
}
svg.railroad-diagram path {
  stroke-width: 3;
  stroke: black;
  fill: none;
}
svg.railroad-diagram text {
  font: bold 14px monospace;
  text-anchor: middle;
  cursor: pointer;
}
svg.railroad-diagram text.label {
  text-anchor: start;
}
svg.railroad-diagram text.comment {
  font: italic 12px monospace;
}
svg.railroad-diagram rect {
  stroke-width: 3;
  stroke: black;
  fill: hsl(120,100%,90%);
}
 ]]></style></defs>
<g transform="translate(.5 .5)">
<path d="M 20 21 v 20 m 10 -20 v 20 m -10 -10 h 20.5"></path>
<g>
<path d="M40 31h0"></path>
<path d="M352 31h0"></path>
<path d="M40 31h10"></path>
<g>
<path d="M50 31h0"></path>
<path d="M78 31h0"></path>
<rect x="50" y="20" width="28" height="22"></rect>
<text x="64" y="35">&#95;</text>
</g>
<path d="M78 31h10"></path>
<path d="M88 31h10"></path>
<g>
<path d="M98 31h0"></path>
<path d="M174 31h0"></path>
<rect x="98" y="20" width="76" height="22"></rect>
<text x="136" y="35">parents</text>
</g>
<path d="M174 31h10"></path>
<path d="M184 31h10"></path>
<g>
<path d="M194 31h0"></path>
<path d="M222 31h0"></path>
<rect x="194" y="20" width="28" height="22"></rect>
<text x="208" y="35">&#95;</text>
</g>
<path d="M222 31h10"></path>
<path d="M232 31h10"></path>
<g>
<path d="M242 31h0"></path>
<path d="M294 31h0"></path>
<rect x="242" y="20" width="52" height="22"></rect>
<text x="268" y="35">name</text>
</g>
<path d="M294 31h10"></path>
<path d="M304 31h10"></path>
<g>
<path d="M314 31h0"></path>
<path d="M342 31h0"></path>
<rect x="314" y="20" width="28" height="22"></rect>
<text x="328" y="35">&#95;</text>
</g>
<path d="M342 31h10"></path>
</g>
<path d="M 352 31 h 20 m -10 -10 v 20 m 10 -20 v 20"></path>
</g>
</svg>
