<?xml version="1.0" standalone="no"?>
<!DOCTYPE svg PUBLIC "-//W3C//DTD SVG 1.1//EN"
  "http://www.w3.org/Graphics/SVG/1.1/DTD/svg11.dtd">
<svg xmlns="http://www.w3.org/2000/svg" version="1.1" class="railroad-diagram" width="609" height="81" viewBox="0 0 609 81">
<defs><style type="text/css"><![CDATA[ svg.railroad-diagram {
  background-color: hsl(30,20%,95%);
}
svg.railroad-diagram path {
  stroke-width: 3;
  stroke: black;
  fill: none;
}
svg.railroad-diagram text {
  font: bold 14px monospace;
  text-anchor: middle;
  cursor: pointer;
}
svg.railroad-diagram text.label {
  text-anchor: start;
}
svg.railroad-diagram text.comment {
  font: italic 12px monospace;
}
svg.railroad-diagram rect {
  stroke-width: 3;
  stroke: black;
  fill: hsl(120,100%,90%);
}
 ]]></style></defs>
<g transform="translate(.5 .5)">
<path d="M 20 31 v 20 m 10 -20 v 20 m -10 -10 h 20.5"></path>
<g>
<path d="M40 41h0"></path>
<path d="M568 41h0"></path>
<g>
<path d="M40 41h0"></path>
<path d="M276 41h0"></path>
<path d="M40 41a10 10 0 0 0 10 -10v0a10 10 0 0 1 10 -10"></path>
<g>
<path d="M60 21h196"></path>
</g>
<path d="M256 21a10 10 0 0 1 10 10v0a10 10 0 0 0 10 10"></path>
<path d="M40 41h20"></path>
<g>
<path d="M60 41h0"></path>
<path d="M256 41h0"></path>
<path d="M60 41h10"></path>
<g>
<path d="M70 41h0"></path>
<path d="M98 41h0"></path>
<rect x="70" y="30" width="28" height="22" rx="10" ry="10"></rect>
<text x="84" y="45">v</text>
</g>
<path d="M98 41h10"></path>
<path d="M108 41h10"></path>
<g>
<path d="M118 41h0"></path>
<path d="M198 41h0"></path>
<path d="M118 41h10"></path>
<g>
<path d="M128 41h0"></path>
<path d="M188 41h0"></path>
<rect x="128" y="30" width="60" height="22" rx="10" ry="10"></rect>
<text x="158" y="45">&#91;0-9&#93;</text>
</g>
<path d="M188 41h10"></path>
<path d="M128 41a10 10 0 0 0 -10 10v0a10 10 0 0 0 10 10"></path>
<g>
<path d="M128 61h60"></path>
</g>
<path d="M188 61a10 10 0 0 0 10 -10v0a10 10 0 0 0 -10 -10"></path>
</g>
<path d="M198 41h10"></path>
<path d="M208 41h10"></path>
<g>
<path d="M218 41h0"></path>
<path d="M246 41h0"></path>
<rect x="218" y="30" width="28" height="22" rx="10" ry="10"></rect>
<text x="232" y="45">/</text>
</g>
<path d="M246 41h10"></path>
</g>
<path d="M256 41h20"></path>
</g>
<path d="M276 41h10"></path>
<g>
<path d="M286 41h0"></path>
<path d="M390 41h0"></path>
<path d="M286 41h10"></path>
<g>
<path d="M296 41h0"></path>
<path d="M380 41h0"></path>
<rect x="296" y="30" width="84" height="22" rx="10" ry="10"></rect>
<text x="338" y="45">&#91;a-zA-Z&#93;</text>
</g>
<path d="M380 41h10"></path>
<path d="M296 41a10 10 0 0 0 -10 10v0a10 10 0 0 0 10 10"></path>
<g>
<path d="M296 61h84"></path>
</g>
<path d="M380 61a10 10 0 0 0 10 -10v0a10 10 0 0 0 -10 -10"></path>
</g>
<path d="M390 41h10"></path>
<g>
<path d="M400 41h0"></path>
<path d="M568 41h0"></path>
<path d="M400 41a10 10 0 0 0 10 -10v0a10 10 0 0 1 10 -10"></path>
<g>
<path d="M420 21h128"></path>
</g>
<path d="M548 21a10 10 0 0 1 10 10v0a10 10 0 0 0 10 10"></path>
<path d="M400 41h20"></path>
<g>
<path d="M420 41h0"></path>
<path d="M548 41h0"></path>
<path d="M420 41h10"></path>
<g>
<path d="M430 41h0"></path>
<path d="M538 41h0"></path>
<rect x="430" y="30" width="108" height="22" rx="10" ry="10"></rect>
<text x="484" y="45">&#91;a-zA-Z0-9&#93;</text>
</g>
<path d="M538 41h10"></path>
<path d="M430 41a10 10 0 0 0 -10 10v0a10 10 0 0 0 10 10"></path>
<g>
<path d="M430 61h108"></path>
</g>
<path d="M538 61a10 10 0 0 0 10 -10v0a10 10 0 0 0 -10 -10"></path>
</g>
<path d="M548 41h20"></path>
</g>
</g>
<path d="M 568 41 h 20 m -10 -10 v 20 m 10 -20 v 20"></path>
</g>
</svg>
