<?xml version="1.0" standalone="no"?>
<!DOCTYPE svg PUBLIC "-//W3C//DTD SVG 1.1//EN"
  "http://www.w3.org/Graphics/SVG/1.1/DTD/svg11.dtd">
<svg xmlns="http://www.w3.org/2000/svg" version="1.1" class="railroad-diagram" width="437" height="72" viewBox="0 0 437 72">
<defs><style type="text/css"><![CDATA[ svg.railroad-diagram {
  background-color: hsl(30,20%,95%);
}
svg.railroad-diagram path {
  stroke-width: 3;
  stroke: black;
  fill: none;
}
svg.railroad-diagram text {
  font: bold 14px monospace;
  text-anchor: middle;
  cursor: pointer;
}
svg.railroad-diagram text.label {
  text-anchor: start;
}
svg.railroad-diagram text.comment {
  font: italic 12px monospace;
}
svg.railroad-diagram rect {
  stroke-width: 3;
  stroke: black;
  fill: hsl(120,100%,90%);
}
 ]]></style></defs>
<g transform="translate(.5 .5)">
<path d="M 20 31 v 20 m 10 -20 v 20 m -10 -10 h 20.5"></path>
<g>
<path d="M40 41h0"></path>
<path d="M396 41h0"></path>
<path d="M40 41h10"></path>
<g>
<path d="M50 41h0"></path>
<path d="M78 41h0"></path>
<rect x="50" y="30" width="28" height="22"></rect>
<text x="64" y="45">&#95;</text>
</g>
<path d="M78 41h10"></path>
<g>
<path d="M88 41h0"></path>
<path d="M204 41h0"></path>
<path d="M88 41a10 10 0 0 0 10 -10v0a10 10 0 0 1 10 -10"></path>
<g>
<path d="M108 21h76"></path>
</g>
<path d="M184 21a10 10 0 0 1 10 10v0a10 10 0 0 0 10 10"></path>
<path d="M88 41h20"></path>
<g>
<path d="M108 41h0"></path>
<path d="M184 41h0"></path>
<rect x="108" y="30" width="76" height="22"></rect>
<text x="146" y="45">parents</text>
</g>
<path d="M184 41h20"></path>
</g>
<path d="M204 41h10"></path>
<g>
<path d="M214 41h0"></path>
<path d="M242 41h0"></path>
<rect x="214" y="30" width="28" height="22"></rect>
<text x="228" y="45">&#95;</text>
</g>
<path d="M242 41h10"></path>
<path d="M252 41h10"></path>
<g>
<path d="M262 41h0"></path>
<path d="M338 41h0"></path>
<rect x="262" y="30" width="76" height="22"></rect>
<text x="300" y="45">resname</text>
</g>
<path d="M338 41h10"></path>
<path d="M348 41h10"></path>
<g>
<path d="M358 41h0"></path>
<path d="M386 41h0"></path>
<rect x="358" y="30" width="28" height="22"></rect>
<text x="372" y="45">&#95;</text>
</g>
<path d="M386 41h10"></path>
</g>
<path d="M 396 41 h 20 m -10 -10 v 20 m 10 -20 v 20"></path>
</g>
</svg>
